<svg width="231" height="182" viewBox="0 0 231 182" fill="none" xmlns="http://www.w3.org/2000/svg">
<path d="M0.385276 162.99L0 37.7684L16.9309 37.3553L16.8275 165.133C16.7421 165.902 19.6763 166.907 22.1161 167.001C24.5558 167.095 26.1545 165.636 27.0944 164.269L27.4637 16.7029L180.45 16.568L180.394 88.8141L168.237 95.7981L167.298 27.9914H39.129V138.73L106.802 139.242C117.429 139.303 123.259 144.061 131.667 151.034C140.075 158.006 146.791 174.186 149.098 181.405H15.7926C13.3401 181.405 9.40102 179.863 5.57487 176.091C1.74873 172.319 0.195955 166.529 0.385276 162.99Z" fill="white"/>
<path d="M185.784 66.9611C189.083 59.7555 194.533 56.8873 198.191 54.7136C199.728 56.5693 202.867 62.0939 203.121 69.3471C203.439 78.4137 193.378 82.3123 189.759 81.5949C183.997 80.4526 183.327 72.3283 185.784 66.9611Z" fill="#C0B77D"/>
<path d="M187.955 39.4954C188.252 34.9169 194.067 27.9835 196.856 25.0758C197.39 25.5505 199.028 27.4256 201.306 31.1284C204.155 35.7569 204.855 38.8066 204.333 42.6997C203.811 46.5928 198.814 52.1347 193.474 51.6006C188.133 51.0666 187.658 44.0739 187.955 39.4954Z" fill="#C0B77D"/>
<path d="M208.773 8.01086C210.34 6.15946 213.656 2.25404 218.208 0C218.037 3.25236 220.357 9.17479 219.17 13.4236C217.982 17.6724 212.334 23.4985 207.883 22.0743C203.433 20.6502 206.815 10.3251 208.773 8.01086Z" fill="#C0B77D"/>
<path d="M214.302 24.5417C217.862 21.2662 220.724 21.3408 226.941 19.7352C226.829 28.494 226.829 35.3269 224.912 39.0766C222.996 42.8264 218.396 45.548 216.26 46.082C214.124 46.6161 209.495 46.6161 208.249 41.6315C207.003 36.647 209.851 28.6362 214.302 24.5417Z" fill="#C0B77D"/>
<path d="M212.522 54.0929C217.006 49.9952 224.686 48.3963 228.721 48.0402C228.543 48.515 228.187 49.7136 228.187 50.7105C228.187 51.9567 228.239 62.0535 225.613 66.2248C222.987 70.3961 218.871 72.8442 215.37 74.3871C213.352 74.9805 208.839 75.5907 207.537 72.9629C204.864 67.5661 207.76 58.4443 212.522 54.0929Z" fill="#C0B77D"/>
<path d="M118.778 172.467C110.624 167.014 104.307 160.582 100.656 152.894C108.696 151.739 118.539 151.702 129.059 156.874C137.45 161 144.466 173.239 145.925 178.118C146.089 178.136 146.101 178.15 145.938 178.16C145.934 178.146 145.93 178.132 145.925 178.118C145.254 178.045 142.032 177.902 137.837 177.648C131.313 177.252 126.932 177.92 118.778 172.467Z" fill="#879258"/>
<path d="M163.025 108.658C141.168 128.712 146.911 162.32 153.095 177.282C154.679 171.743 161.446 157.616 172.322 141.733C183.198 125.85 199.28 115.06 206.401 112.111C201.366 117.434 190.282 127.694 181.584 140.38C172.723 153.306 166.91 169.081 166.694 169.513C185.685 168.866 201.635 160.435 214.17 147.07C223.991 136.598 229.923 115.132 230.139 108.442C230.355 101.753 229.492 83.6257 229.06 83.6257C227.334 84.3163 212.396 84.2512 204.042 85.9051C195.688 87.559 185.389 88.1396 163.025 108.658Z" fill="#879258"/>
<path d="M162.398 181.434L165.07 174.434C166.794 174.329 171.64 174.106 175.591 173.924L175.961 173.907C185.453 173.47 190.448 171.707 199.998 166.711C214.246 159.259 218.658 149.521 218.658 149.521C219.636 162.813 215.679 167.661 209.88 173.703C204.08 179.745 196.268 181.434 186.251 181.434H162.398Z" fill="white"/>
<rect x="112.195" y="53.3755" width="42.9766" height="32.9846" fill="white"/>
<rect x="51.9375" y="54.7966" width="50.2734" height="9.82935" fill="white"/>
<rect x="51.9375" y="74.9775" width="50.2734" height="9.82935" fill="white"/>
<rect x="51.9375" y="95.1584" width="50.2734" height="9.82935" fill="white"/>
<rect x="51.9375" y="114.487" width="50.2734" height="9.82935" fill="white"/>
<rect x="111.961" y="91.0059" width="19.2812" height="17.6538" fill="white"/>
<rect x="136.812" y="91.0059" width="19.2812" height="17.6538" fill="white"/>
<rect x="111.727" y="113.77" width="19.2812" height="11.1497" fill="white"/>
<path d="M136.578 113.77H151.32C148.492 117.28 147.084 119.676 145.303 124.967L136.578 124.92V113.77Z" fill="white"/>
</svg>
